/* XPM */
static char *gapcoin16[] = {
/* columns rows colors chars-per-pixel */
"16 16 32 1 ",
"  c #52CCDF",
". c #53CDDF",
"X c #56CFDE",
"o c #57CFDE",
"O c #57D0DE",
"+ c #5BD2DC",
"@ c #68DCD6",
"# c #68DDD6",
"$ c #69DDD6",
"% c #6CDFD5",
"& c #60D6DA",
"* c #64D9D8",
"= c #7AEACF",
"- c #7BEACF",
"; c #7FEDCD",
": c #6DE0D5",
"> c #71E3D3",
", c #75E6D1",
"< c #76E6D1",
"1 c #49C5E3",
"2 c #49C6E3",
"3 c #4AC6E3",
"4 c #52CCE0",
"5 c #83F0CB",
"6 c #84F1CB",
"7 c #87F3CA",
"8 c #82F0CC",
"9 c #88F3CA",
"0 c #88F4C9",
"q c #8BF6C8",
"w c #8CF6C8",
"e c None",
/* pixels */
"eeeeeqqqwwqeeeee",
"eeee0ee97eeeeeee",
"eeeeee566ee85eee",
"eeee;eeeee;;eeee",
"e=e=eeeee-=eeeee",
",eeeeeeee<eeeeee",
">e>eeeeeeeeeeeee",
":e%%eeeeeeeeeeee",
"@e#$eeeee@ee@##@",
"*e*eeeeee*eeeee*",
"&e&eeeeeeeeeeeee",
"e+e+eeeeeeeeeeee",
"eeXXXeeOoeeeeeee",
"ee. eee44eeeeeee",
"eeeeeeeeeeeeeeee",
"eeeee321123eeeee"
};
