/* XPM */
static char *gapcoin64[] = {
/* columns rows colors chars-per-pixel */
"64 64 128 2 ",
"   c #52CCDF",
".  c #53CCDF",
"X  c #53CDDF",
"o  c #54CDDF",
"O  c #54CEDE",
"+  c #55CEDE",
"@  c #54CEDF",
"#  c #56CFDE",
"$  c #57D0DD",
"%  c #57D0DE",
"&  c #5CD3DB",
"*  c #5CD4DB",
"=  c #5DD4DB",
"-  c #5ED5DA",
";  c #5FD5DA",
":  c #5ED5DB",
">  c #5FD6DA",
",  c #59D1DC",
"<  c #58D0DD",
"1  c #58D1DD",
"2  c #59D1DD",
"3  c #59D2DC",
"4  c #5AD2DC",
"5  c #5BD2DC",
"6  c #5BD3DC",
"7  c #5CD3DC",
"8  c #66DAD7",
"9  c #66DBD7",
"0  c #67DBD7",
"q  c #6BDED5",
"w  c #68DCD6",
"e  c #69DDD6",
"r  c #68DCD7",
"t  c #6ADED6",
"y  c #6CDFD5",
"u  c #61D7D9",
"i  c #60D6DA",
"p  c #60D7DA",
"a  c #63D9D8",
"s  c #62D8D9",
"d  c #63D8D9",
"f  c #63D9D9",
"g  c #64D9D8",
"h  c #64DAD8",
"j  c #65DAD8",
"k  c #66DAD8",
"l  c #79E9CF",
"z  c #7AE9CF",
"x  c #7BEACF",
"c  c #7CEBCE",
"v  c #7DEBCE",
"b  c #7CEBCF",
"n  c #7EECCD",
"m  c #7EEDCD",
"M  c #7FEDCD",
"N  c #7DECCE",
"B  c #7EECCE",
"V  c #6DE0D4",
"C  c #6EE0D4",
"Z  c #6EE1D4",
"A  c #6FE1D4",
"S  c #6BE9DF",
"D  c #70E2D3",
"F  c #71E2D3",
"G  c #71E3D3",
"H  c #72E3D2",
"J  c #72E3D3",
"K  c #72E4D2",
"L  c #73E4D2",
"P  c #74E5D1",
"I  c #75E6D1",
"U  c #77E7D0",
"Y  c #76E7D1",
"T  c #77E7D1",
"R  c #74E5D2",
"E  c #78E8D0",
"W  c #79E8D0",
"Q  c #49C5E3",
"!  c #49C6E3",
"~  c #4BC7E2",
"^  c #4AC6E3",
"/  c #4AC7E3",
"(  c #4BC7E3",
")  c #4CC7E2",
"_  c #48C4E4",
"`  c #48C5E4",
"'  c #4DC9E1",
"]  c #4EC9E1",
"[  c #4FCAE1",
"{  c #4CC8E2",
"}  c #4DC8E2",
"|  c #50CAE0",
" . c #50CBE0",
".. c #51CBE0",
"X. c #50CAE1",
"o. c #51CCE0",
"O. c #52CCE0",
"+. c #72ECE2",
"@. c #72EDE3",
"#. c #80EDCD",
"$. c #81EECC",
"%. c #81EFCC",
"&. c #80EECD",
"*. c #81EECD",
"=. c #82EFCC",
"-. c #8DF7C7",
";. c #8DF8C7",
":. c #83F0CB",
">. c #84F0CB",
",. c #84F1CB",
"<. c #85F1CB",
"1. c #85F2CA",
"2. c #86F2CA",
"3. c #87F3CA",
"4. c #82F0CC",
"5. c #83F0CC",
"6. c #88F3CA",
"7. c #88F4C9",
"8. c #89F4C9",
"9. c #89F5C9",
"0. c #8AF5C8",
"q. c #8BF5C8",
"w. c #8AF5C9",
"e. c #8BF6C8",
"r. c #8CF6C8",
"t. c #8CF7C8",
"y. c #8DF7C8",
"u. c None",
/* pixels */
"u.u.u.u.u.u.u.u.u.u.u.u.u.u.u.u.u.u.u.u.u.u.u.u.u.u.u.-.-.;.;.;.;.;.;.-.-.u.u.u.u.u.u.u.u.u.u.u.u.u.u.u.u.u.u.u.u.u.u.u.u.u.u.u.",
"u.u.u.u.u.u.u.u.u.u.u.u.u.u.u.u.u.u.u.u.u.u.u.t.t.t.y.y.y.y.y.y.y.y.y.y.y.y.t.t.t.u.u.u.u.u.u.u.u.u.u.u.u.u.u.u.u.u.u.u.u.u.u.u.",
"u.u.u.u.u.u.u.u.u.u.u.u.u.u.u.u.u.u.u.u.e.e.e.e.r.r.r.r.r.r.r.r.r.r.r.r.r.r.r.r.e.e.e.e.u.u.u.u.u.u.u.u.u.u.u.u.u.u.u.u.u.u.u.u.",
"u.u.u.u.u.u.u.u.u.u.u.u.u.u.u.u.u.u.w.0.0.0.0.0.q.q.q.q.q.q.0.0.q.u.u.u.e.q.q.q.q.0.0.0.0.w.u.u.u.u.u.u.u.u.u.u.u.u.u.u.u.u.u.u.",
"u.u.u.u.u.u.u.u.u.u.u.u.u.u.u.u.8.9.9.9.9.9.9.w.u.u.u.u.u.9.9.9.9.u.u.u.u.u.u.u.w.9.9.9.9.9.9.8.u.u.u.u.u.u.u.u.u.u.u.u.u.u.u.u.",
"u.u.u.u.u.u.u.u.u.u.u.u.u.u.6.7.7.7.7.7.7.u.u.u.u.u.u.u.u.7.7.7.7.u.u.u.u.u.u.u.u.u.u.8.7.7.7.7.7.u.u.u.u.u.u.u.u.u.u.u.u.u.u.u.",
"u.u.u.u.u.u.u.u.u.u.u.u.u.3.3.3.3.3.3.u.u.u.u.u.u.u.u.u.u.3.3.3.3.u.u.u.u.u.u.u.u.u.u.u.u.u.3.3.3.3.3.u.u.u.u.u.u.u.u.u.u.u.u.u.",
"u.u.u.u.u.u.u.u.u.u.u.u.2.2.2.2.2.u.u.u.u.u.u.u.u.u.u.u.1.2.2.2.2.1.1.1.u.u.u.u.u.u.u.u.u.u.u.2.2.2.2.2.u.u.u.u.u.u.u.u.u.u.u.u.",
"u.u.u.u.u.u.u.u.u.u.<.<.<.<.<.<.u.u.u.u.u.u.u.u.,.<.<.<.<.<.<.<.<.<.<.<.<.<.<.<.u.u.u.u.u.u.u.u.<.<.<.<.<.u.u.u.u.u.u.u.u.u.u.u.",
"u.u.u.u.u.u.u.u.u.:.>.>.>.>.u.u.u.u.u.u.u.u.:.>.>.>.>.>.>.>.>.>.>.>.>.>.>.>.>.>.>.:.:.u.u.u.u.u.>.>.>.>.u.u.u.u.u.u.u.u.u.u.u.u.",
"u.u.u.u.u.u.u.u.=.4.4.5.5.u.u.u.u.u.u.u.=.4.4.5.5.5.5.5.5.u.u.u.u.u.u.u.:.5.5.5.5.5.4.4.=.u.u.=.4.5.5.5.u.u.u.u.u.u.u.u.u.u.u.u.",
"u.u.u.u.u.u.u.u.%.%.%.=.u.u.u.u.u.u.%.%.%.%.%.%.=.u.u.u.u.u.u.u.u.u.u.u.u.u.u.u.=.=.%.%.%.%.%.%.%.%.=.u.u.u.u.u.u.u.u.u.u.u.u.u.",
"u.u.u.u.u.u.u.&.&.&.*.u.u.u.u.u.u.&.&.&.&.*.$.u.u.u.u.u.u.u.u.u.u.u.u.u.u.u.u.u.u.u.$.*.&.&.&.&.*.$.u.u.u.u.u.u.u.u.u.u.u.u.u.u.",
"u.u.u.u.u.u.M M M M u.u.u.u.u.u.M M M M M u.u.u.u.u.u.u.u.u.u.u.u.u.u.u.u.u.u.u.u.u.u.u.M M M M #.u.u.u.u.u.u.u.u.u.u.u.u.u.u.u.",
"u.u.u.u.u.B n n n u.u.u.u.u.u.B n n n m u.u.u.u.u.u.u.u.B B B B B B B B B u.u.u.u.u.u.u.n n n m u.u.u.u.u.u.u.u.u.u.u.u.u.u.u.u.",
"u.u.u.u.u.v N N N u.u.u.u.u.v N N N u.u.u.u.u.u.u.v v N N N N N N N N N N N v v u.u.u.v N N N u.u.u.u.u.u.u.u.u.u.u.u.u.u.u.u.u.",
"u.u.u.u.b c c c u.u.u.u.u.b c c c u.u.u.u.u.u.b c c c c c c c c c c c c c c c c c b b c c c u.u.u.u.u.u.u.u.u.u.u.u.u.u.u.u.u.u.",
"u.u.u.u.x x x u.u.u.u.u.x x x x u.u.u.u.u.u.x x x x x x u.u.u.u.u.u.u.u.u.x x x x x x x x u.u.u.u.u.u.u.u.u.u.u.u.u.u.u.u.u.u.u.",
"u.u.u.l z z z u.u.u.u.l z z z u.u.u.u.u.u.l z z z z u.u.u.u.u.u.u.u.u.u.u.u.u.z z z z z u.u.u.u.u.u.u.u.u.u.u.u.u.u.u.u.u.u.u.u.",
"u.u.u.W W W u.u.u.u.u.W W W W u.u.u.u.u.W W W W u.u.u.u.u.u.u.u.u.u.u.u.u.u.u.W W W W u.u.u.u.u.u.u.u.u.u.u.u.u.u.u.u.u.u.u.u.u.",
"u.u.U U U E u.u.u.u.U U U E u.u.u.u.u.U U U E u.u.u.u.u.u.u.u.u.u.u.u.u.u.u.u.U U E E u.u.u.u.u.u.u.u.u.u.u.u.u.u.u.u.u.u.u.u.u.",
"u.u.Y Y Y u.u.u.u.u.Y Y Y u.u.u.u.u.Y Y Y T u.u.u.u.u.u.u.u.u.u.u.u.u.u.u.u.Y Y Y T u.u.u.u.u.u.u.u.u.u.u.u.u.u.u.u.u.u.u.u.u.u.",
"u.I I I I u.u.u.u.I I I I u.u.u.u.I I I I u.u.u.u.u.u.u.u.I I I I I I I I I I I I u.u.u.u.u.u.u.u.u.u.u.u.u.u.u.u.u.u.u.u.u.u.u.",
"u.R R R P u.u.u.u.R R R u.u.u.u.u.R R R u.u.u.u.u.u.u.u.R R R R R R R R R R R P u.u.u.u.u.u.u.u.u.u.u.u.u.u.u.u.u.u.u.u.u.u.u.u.",
"u.L L L u.u.u.u.L L L L u.u.u.u.L L L L u.u.u.u.u.u.L L L L L L L L L L L L L u.u.u.u.u.u.u.u.u.u.u.u.u.u.u.u.u.u.u.u.u.u.u.u.u.",
"J J J H u.u.u.u.J J H H u.u.u.u.J H H u.u.u.u.u.u.J J H H K u.u.u.u.u.u.K K u.u.u.u.u.u.u.u.u.u.u.u.u.u.u.u.u.u.u.u.u.u.u.u.u.u.",
"F G G G u.u.u.u.F G G u.u.u.u.F G G G u.u.u.u.u.u.F G G G u.u.u.u.u.u.u.u.u.u.u.u.u.u.u.u.u.u.u.u.u.u.u.u.u.u.u.u.u.u.u.u.u.u.u.",
"D D D D u.u.u.u.D D D u.u.u.u.D D D u.u.u.u.u.u.D D D D u.u.u.u.u.u.u.u.u.u.u.u.u.u.u.u.u.u.u.u.u.u.u.u.u.u.u.u.u.u.u.u.u.u.u.u.",
"Z Z Z u.u.u.u.u.Z Z A u.u.u.u.Z Z A u.u.u.u.u.u.Z Z A u.u.u.u.u.u.u.u.u.u.u.u.u.u.u.u.u.u.u.u.u.u.u.u.u.u.u.u.u.u.u.u.u.u.u.u.u.",
"V V V u.u.u.u.u.V V V u.u.u.u.V V V u.u.u.u.u.V V V C u.u.u.u.u.u.u.u.u.u.u.u.u.u.u.u.u.u.u.u.u.u.u.u.u.u.u.u.u.u.u.u.u.u.u.u.u.",
"y y y u.u.u.u.y y y y u.u.u.y y y y u.u.u.u.u.y y y u.u.u.u.u.u.u.u.u.u.u.u.u.u.u.u.u.u.u.u.u.u.u.u.u.u.u.u.u.u.u.u.u.u.u.u.u.u.",
"q q q u.u.u.u.q q q q q q q q q q q u.u.u.u.u.q q q u.u.u.u.u.u.u.u.u.q q q q q q q u.u.u.u.u.u.u.u.u.@.@.+.S q q q q q q q q q ",
"t t t u.u.u.u.t t t t t t t t t t t u.u.u.u.u.t t t u.u.u.u.u.u.u.u.u.t t t t t t t t u.u.u.u.u.t t t t t t t t t t t t t t t t ",
"e e e u.u.u.u.e e e e e e e e e e e u.u.u.u.u.e e e u.u.u.u.u.u.u.u.u.e e e e e e e e u.u.u.u.u.e e e e e e e e e e e e e e e e ",
"r r r u.u.u.u.u.r r r w w w r r r r u.u.u.u.u.r r r r u.u.u.u.u.u.u.u.w w w w r r r r u.u.u.u.r r r w w w w r r r r w w w r r r ",
"0 0 0 u.u.u.u.u.0 0 0 u.u.u.u.0 0 0 u.u.u.u.u.u.0 0 0 u.u.u.u.u.u.u.u.u.u.u.u.0 0 0 u.u.u.u.u.0 0 0 u.u.u.u.0 0 0 u.u.u.u.0 0 0 ",
"k k k k u.u.u.u.k k k u.u.u.u.9 k k k u.u.u.u.u.9 k k k u.u.u.u.u.u.u.u.u.u.k k 8 9 u.u.u.u.u.k 8 9 u.u.u.u.k 8 8 u.u.u.u.k 8 8 ",
"h h h h u.u.u.u.h h h u.u.u.u.u.h h h u.u.u.u.u.u.h h h g u.u.u.u.u.u.u.u.g h h h u.u.u.u.u.h h h u.u.u.u.u.h h h u.u.u.u.h h h ",
"a a a a u.u.u.u.a a a f u.u.u.u.a a a u.u.u.u.u.u.g a a a a f u.u.u.u.f f a a a g u.u.u.u.u.a a a u.u.u.u.u.a a u.u.u.u.u.a a u.",
"u.s s s u.u.u.u.s s s s u.u.u.u.u.s s s u.u.u.u.u.u.d s s s s s s s s s s s s d u.u.u.u.u.s s s u.u.u.u.u.s s s u.u.u.u.s s s u.",
"u.u u u u u.u.u.u.u u u u.u.u.u.u.u u u u u.u.u.u.u.u.u.u u u u u u u u u u u.u.u.u.u.u.u.u u u u.u.u.u.u.u u u u.u.u.u.u u u u.",
"u.i i i i u.u.u.u.i i i i u.u.u.u.u.i i i i u.u.u.u.u.u.u.u.p p p p p p u.u.u.u.u.u.u.u.i i i u.u.u.u.u.i i i u.u.u.u.u.i i i u.",
"u.u.; ; ; u.u.u.u.> ; ; ; u.u.u.u.u.> > ; ; - u.u.u.u.u.u.u.u.u.u.u.u.u.u.u.u.u.u.u.u.; ; > > u.u.u.u.u.; ; > u.u.u.u.; ; > u.u.",
"u.u.: : : : u.u.u.u.: : : : u.u.u.u.u.: : : : : u.u.u.u.u.u.u.u.u.u.u.u.u.u.u.u.u.u.: : : : u.u.u.u.u.: : : : u.u.u.u.: : : u.u.",
"u.u.= = = * u.u.u.u.u.= = = u.u.u.u.u.u.= = = = * u.u.u.u.u.u.u.u.u.u.u.u.u.u.u.* = = = = u.u.u.u.u.u.= = = u.u.u.u.u.= = u.u.u.",
"u.u.u.7 7 6 u.u.u.u.u.7 7 6 6 u.u.u.u.u.u.& 7 7 6 6 6 u.u.u.u.u.u.u.u.u.u.u.6 6 6 7 7 & u.u.u.u.u.u.6 7 7 u.u.u.u.u.6 7 7 u.u.u.",
"u.u.u.5 4 4 4 u.u.u.u.u.5 4 4 4 u.u.u.u.u.u.u.5 5 5 4 4 4 4 4 u.u.u.4 4 4 4 4 5 5 5 u.u.u.u.u.u.u.4 4 5 5 u.u.u.u.u.4 5 5 u.u.u.",
"u.u.u.u., 2 2 2 u.u.u.u.3 , 2 2 2 u.u.u.u.u.u.u.u.3 , , 2 2 2 2 2 2 2 2 2 , , 3 u.u.u.u.u.u.u.u.2 2 , 3 u.u.u.u.u.2 , , u.u.u.u.",
"u.u.u.u.1 1 1 < u.u.u.u.u.1 1 1 < < u.u.u.u.u.u.u.u.u.1 1 1 1 1 1 1 1 1 1 1 u.u.u.u.u.u.u.u.u.< 1 1 1 u.u.u.u.u.< 1 1 u.u.u.u.u.",
"u.u.u.u.u.$ $ $ % u.u.u.u.% $ $ $ $ % u.u.u.u.u.u.u.u.u.u.u.$ $ $ $ $ u.u.u.u.u.u.u.u.u.u.u.% $ $ $ u.u.u.u.u.u.$ $ $ u.u.u.u.u.",
"u.u.u.u.u.u.# # # # u.u.# # # # # # # # # u.u.u.u.u.u.u.u.u.u.# # # # u.u.u.u.u.u.u.u.u.u.# # # # u.u.u.u.u.u.# # # u.u.u.u.u.u.",
"u.u.u.u.u.u.+ + + + O O + + + + + + + + + O u.u.u.u.u.u.u.u.u.+ + + u.u.u.u.u.u.u.u.u.O + + + + u.u.u.u.u.u.+ + + u.u.u.u.u.u.u.",
"u.u.u.u.u.u.u.@ o o o o o o o u.u.u.@ o o o o X X u.u.u.u.u.u.o o o u.u.u.u.u.u.u.X o o o o @ u.u.u.u.u.u.o o o @ u.u.u.u.u.u.u.",
"u.u.u.u.u.u.u.u.X . . . . . X u.u.u.u.X X . . . .     u.u.u.u.. . .   u.u.u.    . . . . X u.u.u.u.u.u.u.  . . X u.u.u.u.u.u.u.u.",
"u.u.u.u.u.u.u.u.u.O.o.o.o.o.u.u.u.u.u.u.u.O.O.O.o.o.o.o.o.o.o.o.o.o.o.o.o.o.o.o.O.O.O.u.u.u.u.u.u.u.u.o.o.O.O.u.u.u.u.u.u.u.u.u.",
"u.u.u.u.u.u.u.u.u.u... . . . .u.u.u.u.u.u.u.u....... . . . . . . . . . . . . .....u.u.u.u.u.u.u.u.u. . . ...u.u.u.u.u.u.u.u.u.u.",
"u.u.u.u.u.u.u.u.u.u.u.X.[ [ [ [ [ u.u.u.u.u.u.u.u.u.u.| X.[ [ [ [ [ [ X.| | u.u.u.u.u.u.u.u.u.u.[ [ [ [ | u.u.u.u.u.u.u.u.u.u.u.",
"u.u.u.u.u.u.u.u.u.u.u.u.] ] ] ] ] ] u.u.u.u.u.u.u.u.u.u.u.u.u.u.u.u.u.u.u.u.u.u.u.u.u.u.u.u.] ] ] ] ] u.u.u.u.u.u.u.u.u.u.u.u.u.",
"u.u.u.u.u.u.u.u.u.u.u.u.u.u.' } } } } } u.u.u.u.u.u.u.u.u.u.u.u.u.u.u.u.u.u.u.u.u.u.u.u.} } } } ' ' u.u.u.u.u.u.u.u.u.u.u.u.u.u.",
"u.u.u.u.u.u.u.u.u.u.u.u.u.u.u.{ { { { { { ) ~ u.u.u.u.u.u.u.u.u.u.u.u.u.u.u.u.u.u.u.) ) { { { { { u.u.u.u.u.u.u.u.u.u.u.u.u.u.u.",
"u.u.u.u.u.u.u.u.u.u.u.u.u.u.u.u.u.~ ~ ~ ~ ~ ( ( ( / u.u.u.u.u.u.u.u.u.u.u.u.u./ ( ( ~ ~ ~ ~ ~ u.u.u.u.u.u.u.u.u.u.u.u.u.u.u.u.u.",
"u.u.u.u.u.u.u.u.u.u.u.u.u.u.u.u.u.u.u.^ ^ ^ ^ ^ ^ ^ ! ! ! ! ! ! ! ! ! ! ! ! ^ ^ ^ ^ ^ ^ u.u.u.u.u.u.u.u.u.u.u.u.u.u.u.u.u.u.u.u.",
"u.u.u.u.u.u.u.u.u.u.u.u.u.u.u.u.u.u.u.u.u.u.Q Q Q Q Q Q Q Q Q Q Q Q Q Q Q Q Q Q Q ! u.u.u.u.u.u.u.u.u.u.u.u.u.u.u.u.u.u.u.u.u.u.",
"u.u.u.u.u.u.u.u.u.u.u.u.u.u.u.u.u.u.u.u.u.u.u.u.u.` ` _ _ _ _ _ _ _ _ _ ` ` u.u.u.u.u.u.u.u.u.u.u.u.u.u.u.u.u.u.u.u.u.u.u.u.u.u."
};
