/* XPM */
static char *gapcoin32[] = {
/* columns rows colors chars-per-pixel */
"32 32 101 2 ",
"   c #52CCDF",
".  c #53CDDF",
"X  c #54CDDF",
"o  c #55CEDE",
"O  c #55CFDE",
"+  c #56CFDE",
"@  c #57D0DD",
"#  c #5CD3DB",
"$  c #5CD4DB",
"%  c #5DD4DB",
"&  c #5ED5DA",
"*  c #5FD5DA",
"=  c #5ED5DB",
"-  c #5FD6DA",
";  c #59D1DC",
":  c #58D0DD",
">  c #58D1DD",
",  c #59D1DD",
"<  c #59D2DC",
"1  c #5AD2DC",
"2  c #5BD2DC",
"3  c #5CD3DC",
"4  c #67DBD7",
"5  c #67DCD7",
"6  c #6BDED5",
"7  c #6BDFD5",
"8  c #68DCD6",
"9  c #69DDD6",
"0  c #68DCD7",
"q  c #6CDFD5",
"w  c #61D7D9",
"e  c #60D6DA",
"r  c #60D7DA",
"t  c #61D7DA",
"y  c #63D9D8",
"u  c #62D8D9",
"i  c #63D8D9",
"p  c #63D9D9",
"a  c #65DAD8",
"s  c #79E9CF",
"d  c #7AE9CF",
"f  c #7BEACF",
"g  c #7CEBCE",
"h  c #7DEBCE",
"j  c #7CEBCF",
"k  c #7EECCD",
"l  c #7EEDCD",
"z  c #7FEDCD",
"x  c #7DECCE",
"c  c #7EECCE",
"v  c #6EE0D4",
"b  c #6EE1D4",
"n  c #70E2D3",
"m  c #72E4D2",
"M  c #73E4D2",
"N  c #74E5D1",
"B  c #75E5D1",
"V  c #75E6D1",
"C  c #77E7D0",
"Z  c #76E7D1",
"A  c #77E7D1",
"S  c #74E5D2",
"D  c #79E8D0",
"F  c #79E9D0",
"G  c #48C5E3",
"H  c #49C5E3",
"J  c #49C6E3",
"K  c #4BC7E2",
"L  c #4AC6E3",
"P  c #4BC7E3",
"I  c #4CC7E2",
"U  c #4DC9E1",
"Y  c #4EC9E1",
"T  c #4FCAE1",
"R  c #4CC8E2",
"E  c #4DC8E2",
"W  c #50CBE0",
"Q  c #51CBE0",
"!  c #50CAE1",
"~  c #51CCE0",
"^  c #52CCE0",
"/  c #81EFCC",
"(  c #80EECD",
")  c #82EFCC",
"_  c #83F0CB",
"`  c #84F0CB",
"'  c #84F1CB",
"]  c #85F1CB",
"[  c #86F2CA",
"{  c #87F3CA",
"}  c #83F0CC",
"|  c #88F4C9",
" . c #89F4C9",
".. c #89F5C9",
"X. c #8AF5C8",
"o. c #8BF5C8",
"O. c #8BF6C8",
"+. c #8CF6C8",
"@. c #8CF7C8",
"#. c #8DF7C8",
"$. c None",
/* pixels */
"$.$.$.$.$.$.$.$.$.$.$.$.@.@.#.#.#.#.@.@.$.$.$.$.$.$.$.$.$.$.$.$.",
"$.$.$.$.$.$.$.$.$.$.X.O.O.O.O.O.O.+.O.O.O.o.$.$.$.$.$.$.$.$.$.$.",
"$.$.$.$.$.$.$.$.|  ...$.$.$. . .$.$.$.$.$... .| $.$.$.$.$.$.$.$.",
"$.$.$.$.$.$.[ [ { $.$.$.$.$.[ [ [ $.$.$.$.$.$.{ [ [ $.$.$.$.$.$.",
"$.$.$.$.$.` ' ] $.$.$.$.` ' ' ] ] ' ' ` _ $.$.$.' ' $.$.$.$.$.$.",
"$.$.$.$./ ) $.$.$.$./ ) } } $.$.$.$.$.} ) ) / / ) } $.$.$.$.$.$.",
"$.$.$.z ( $.$.$.z ( ( $.$.$.$.$.$.$.$.$.$.( ( ( ( $.$.$.$.$.$.$.",
"$.$.x c k $.$.x c l $.$.$.h x x x x x $.$.$.c k $.$.$.$.$.$.$.$.",
"$.$.f j $.$.f f $.$.$.f f j g $.$.g g f f f j $.$.$.$.$.$.$.$.$.",
"$.D F $.$.$.F d $.$.D s d $.$.$.$.$.$.s F d $.$.$.$.$.$.$.$.$.$.",
"$.A C $.$.A C $.$.Z C $.$.$.$.$.$.$.$.Z C $.$.$.$.$.$.$.$.$.$.$.",
"N B $.$.N B $.$.S B $.$.$.$.S N N N N V $.$.$.$.$.$.$.$.$.$.$.$.",
"m m $.$.m m $.$.m M $.$.$.m M M $.M M $.$.$.$.$.$.$.$.$.$.$.$.$.",
"n n $.$.n n $.$.n $.$.$.n n $.$.$.$.$.$.$.$.$.$.$.$.$.$.$.$.$.$.",
"v b $.$.b $.$.v b $.$.$.b $.$.$.$.$.$.$.$.$.$.$.$.$.$.$.$.$.$.$.",
"q q $.$.q 7 6 7 q $.$.$.q $.$.$.$.$.$.$.$.$.$.$.$.$.$.$.$.$.$.$.",
"9 9 $.$.9 9 9 9 9 $.$.$.9 $.$.$.$.$.9 9 9 $.$.$.9 9 9 9 9 9 9 9 ",
"5 5 $.$.5 0 $.0 5 $.$.$.5 4 $.$.$.$.$.5 5 $.$.$.5 8 8 5 0 $.0 5 ",
"a a $.$.a a $.$.a $.$.$.a a $.$.$.$.$.a a $.$.a a $.$.a $.$.a a ",
"p i $.$.p i $.$.p i $.$.$.y i u u u i y $.$.$.i $.$.$.i $.$.i p ",
"w t $.$.w t $.$.$.t e $.$.$.w w w w w $.$.$.e w $.$.r t $.$.t $.",
"$.& = $.$.& = $.$.- & = $.$.$.$.$.$.$.$.$.= * $.$.$.& $.$.$.& $.",
"$.$ # $.$.% # $.$.$.% $ 3 $.$.$.$.$.$.$.3 $ $.$.$.3 $ $.$.# $ $.",
"$.$.1 ; $.$.1 < $.$.$.$.2 1 < , , , < 1 2 $.$.$., 1 $.$.$.1 $.$.",
"$.$.> : $.$.: : @ $.$.$.$.$.> : : > $.$.$.$.$.@ : $.$.$.@ > $.$.",
"$.$.$.+ o o o O + O o $.$.$.$.+ O $.$.$.$.$.o + $.$.$.o + $.$.$.",
"$.$.$.$.. . . X $.X . .   $.$.. . $.$.$.  . X $.$.$.  . $.$.$.$.",
"$.$.$.$.$.~ Q $.$.$.$.^ ~ Q Q Q Q Q Q Q ^ $.$.$.$.W Q $.$.$.$.$.",
"$.$.$.$.$.$.T Y Y $.$.$.$.$.$.$.! $.$.$.$.$.$.$.Y T $.$.$.$.$.$.",
"$.$.$.$.$.$.$.U E R I $.$.$.$.$.$.$.$.$.$.$.R E U $.$.$.$.$.$.$.",
"$.$.$.$.$.$.$.$.$.K P L L J $.$.$.$.J L L P K $.$.$.$.$.$.$.$.$.",
"$.$.$.$.$.$.$.$.$.$.$.J H H G G G G H H $.$.$.$.$.$.$.$.$.$.$.$."
};
