<?xml version="1.0" encoding="UTF-8" standalone="no"?>
<!-- Created with Inkscape (http://www.inkscape.org/) -->

<svg
   xmlns:dc="http://purl.org/dc/elements/1.1/"
   xmlns:cc="http://creativecommons.org/ns#"
   xmlns:rdf="http://www.w3.org/1999/02/22-rdf-syntax-ns#"
   xmlns:svg="http://www.w3.org/2000/svg"
   xmlns="http://www.w3.org/2000/svg"
   xmlns:xlink="http://www.w3.org/1999/xlink"
   xmlns:sodipodi="http://sodipodi.sourceforge.net/DTD/sodipodi-0.dtd"
   xmlns:inkscape="http://www.inkscape.org/namespaces/inkscape"
   width="200.05714mm"
   height="199.0766mm"
   viewBox="0 0 200.05714 199.0766"
   version="1.1"
   id="svg106"
   inkscape:version="0.92.3 (2405546, 2018-03-11)"
   sodipodi:docname="gapcoin.svg">
  <defs
     id="defs100">
    <linearGradient
       inkscape:collect="always"
       id="linearGradient6118">
      <stop
         style="stop-color:#47c4e4;stop-opacity:1;"
         offset="0"
         id="stop6114" />
      <stop
         style="stop-color:#8ef8c7;stop-opacity:1"
         offset="1"
         id="stop6116" />
    </linearGradient>
    <linearGradient
       inkscape:collect="always"
       xlink:href="#linearGradient6118"
       id="linearGradient6122"
       x1="47.599396"
       y1="298.65729"
       x2="47.69252"
       y2="207.45157"
       gradientUnits="userSpaceOnUse"
       gradientTransform="matrix(2.1800601,0,0,2.1800601,-2.9473942,-352.61747)" />
  </defs>
  <sodipodi:namedview
     id="base"
     pagecolor="#ffffff"
     bordercolor="#666666"
     borderopacity="1.0"
     inkscape:pageopacity="0.0"
     inkscape:pageshadow="2"
     inkscape:zoom="1.4"
     inkscape:cx="-107.53531"
     inkscape:cy="299.79953"
     inkscape:document-units="mm"
     inkscape:current-layer="layer1"
     showgrid="false"
     inkscape:window-width="3840"
     inkscape:window-height="2063"
     inkscape:window-x="0"
     inkscape:window-y="0"
     inkscape:window-maximized="1"
     fit-margin-top="0"
     fit-margin-left="0"
     fit-margin-right="0"
     fit-margin-bottom="0" />
  <metadata
     id="metadata103">
    <rdf:RDF>
      <cc:Work
         rdf:about="">
        <dc:format>image/svg+xml</dc:format>
        <dc:type
           rdf:resource="http://purl.org/dc/dcmitype/StillImage" />
        <dc:title></dc:title>
      </cc:Work>
    </rdf:RDF>
  </metadata>
  <g
     inkscape:label="Layer 1"
     inkscape:groupmode="layer"
     id="layer1"
     transform="translate(-2.4976647,-99.73621)">
    <path
       style="fill:url(#linearGradient6122);fill-opacity:1;stroke-width:0.76907676"
       d="M 83.898231,297.25581 C 69.913036,294.78526 55.908155,288.92899 43.906227,280.53281 36.865725,275.60751 24.178885,262.55966 19.389795,255.31876 7.2138761,236.90934 1.7055838,217.25297 2.5891839,195.36577 c 0.6294705,-15.59248 3.6013066,-27.35893 10.2684541,-40.6563 6.977871,-13.91707 16.724266,-25.75111 28.64285,-34.77809 7.978932,-6.04314 23.867842,-14.12163 32.192642,-16.36791 18.81237,-5.076115 38.363,-5.103233 57.11878,-0.0792 11.10464,2.97454 34.17948,15.92116 37.19958,20.87159 0.62886,1.03083 -0.11644,2.30847 -3.78816,6.49411 -7.11728,8.11337 -33.0419,36.93096 -39.20284,43.57752 l -5.5425,5.97938 -4.13878,-2.09061 c -10.83396,-5.47261 -24.096793,-0.40378 -29.416227,11.24235 -2.414263,5.28571 -2.216489,13.06808 0.462717,18.20724 5.958564,11.42955 19.31206,15.73486 30.02729,9.68115 4.57364,-2.58394 8.6689,-7.18088 7.98498,-8.96316 -0.36311,-0.94626 -1.75492,-1.19738 -6.63623,-1.19738 H 111.585 v -5.38354 -5.38353 l 7.49848,0.004 c 4.12418,0.003 9.87721,0.23009 12.78453,0.50459 l 5.28602,0.49913 -0.36419,5.07121 c -0.7377,10.27259 -7.27808,19.50421 -17.34222,24.47817 -5.61063,2.77293 -6.18937,2.89569 -13.59082,2.88282 -7.021212,-0.0131 -8.192755,-0.23116 -12.766085,-2.38615 -8.641823,-4.07209 -14.282903,-10.42133 -17.241986,-19.40645 -2.160133,-6.5592 -1.432168,-16.70389 1.674809,-23.33929 2.956402,-6.31383 7.758573,-11.25143 14.194502,-14.59473 4.636139,-2.40838 5.276117,-2.53043 13.3298,-2.5425 4.65291,-0.006 9.41453,0.25424 10.58138,0.58045 1.89881,0.53086 2.54468,0.13952 6.15261,-3.72773 2.2171,-2.37648 4.34122,-4.86609 4.72032,-5.53245 0.99245,-1.74454 -1.71809,-3.67806 -7.87925,-5.62048 -34.499142,-10.8765 -68.278758,20.84853 -59.354029,55.74388 2.18756,8.55329 5.671688,14.56509 12.323945,21.26477 15.194124,15.3024 36.276514,18.38926 55.758244,8.16404 6.92228,-3.63327 15.69358,-12.72841 19.09485,-19.79992 2.93551,-6.10321 5.10103,-13.92254 5.11971,-18.48641 l 0.0114,-2.77871 23.26456,-0.55611 c 12.79551,-0.30583 24.26551,-0.30335 25.48889,0.004 l 2.22434,0.56162 -0.44685,8.15677 c -0.97407,17.78139 -6.56886,34.17939 -17.12499,50.19226 -4.41882,6.70303 -17.15476,19.68712 -24.17704,24.64809 -21.65095,15.29558 -50.08289,21.48737 -76.907679,16.74861 z m 38.453819,-9.14458 c 26.50607,-5.95296 49.42026,-23.29091 61.70368,-46.68789 5.75268,-10.95746 11.09143,-30.52517 9.01192,-33.03081 -1.33163,-1.6045 -10.68285,-1.25418 -11.53353,0.43207 -0.32009,0.63449 -1.45245,4.86766 -2.51633,9.40703 -3.29753,14.06971 -11.08817,27.43675 -21.97825,37.70992 -6.44883,6.08347 -10.14475,8.66205 -18.2436,12.72814 -8.4634,4.24915 -14.35376,6.1329 -23.62233,7.55453 -18.117845,2.77891 -37.767991,-1.10977 -52.654247,-10.42006 -3.103142,-1.9408 -6.451125,-4.03115 -7.439978,-4.64526 -1.712395,-1.06342 -1.964649,-0.93535 -5.301406,2.69176 -1.926889,2.0946 -3.517199,4.34711 -3.533987,5.00567 -0.04534,1.77352 13.054332,10.09058 21.666049,13.75602 7.686216,3.27149 15.98021,5.66058 24.063481,6.93144 6.637389,1.04355 22.733098,0.28451 30.378528,-1.43256 z M 99.120936,261.32605 c 0.287441,-7.08491 -0.388378,-8.34081 -4.848148,-9.0096 -10.225812,-1.53345 -21.081639,-7.25888 -29.216948,-15.40919 -7.011269,-7.02419 -10.463721,-12.4412 -13.627729,-21.38233 -1.215252,-3.43421 -2.581999,-6.69276 -3.037195,-7.24124 -0.516587,-0.62244 -2.635671,-0.99723 -5.63831,-0.99723 -7.315454,0 -7.651249,1.01299 -4.079155,12.30522 4.03612,12.7591 13.033381,25.7452 23.306086,33.63858 9.862808,7.57843 26.178466,14.24533 33.83937,13.82745 l 3.076306,-0.16787 z m 23.661214,3.99093 c 12.41908,-3.59889 21.32223,-8.87459 30.33857,-17.97749 9.24095,-9.3297 15.20143,-19.79133 18.20071,-31.94525 1.7257,-6.99303 1.2506,-7.65902 -5.66925,-7.94678 -6.14776,-0.25567 -6.49912,-0.009 -7.84238,5.49311 -1.36296,5.58342 -6.43775,15.12229 -10.89405,20.47707 -7.13271,8.57082 -18.27592,15.44358 -29.36572,18.11181 -3.06928,0.73845 -6.01311,1.68385 -6.54186,2.10086 -1.01595,0.80123 -1.40455,12.17548 -0.44861,13.13141 1.01691,1.01694 5.59545,0.47574 12.22259,-1.44474 z m -81.375427,-8.76045 c 3.678263,-4.27121 3.933723,-5.36143 1.724689,-7.36058 C 40.54693,246.85701 33.750178,235.70337 31.183877,229.58968 26.69123,218.8869 25.8276,213.81415 25.881055,198.44206 c 0.04468,-12.84144 0.201437,-14.34433 2.165519,-20.76507 4.117501,-13.45999 10.864765,-24.69332 20.49747,-34.12559 10.051953,-9.84279 24.557156,-17.71676 37.505927,-20.35964 3.086922,-0.63004 6.115156,-1.56263 6.72941,-2.07244 1.498203,-1.24336 1.534741,-9.43229 0.04752,-10.66649 -1.378692,-1.14422 -10.220319,0.61573 -19.568371,3.89514 -35.983768,12.62358 -60.92069,47.84846 -60.88001,85.99662 0.01307,11.93927 4.808166,30.27652 10.865965,41.55033 4.552706,8.47277 12.167939,18.45831 14.076124,18.45746 0.449594,-2.1e-4 2.288322,-1.70835 4.086022,-3.79585 z m 6.394836,-61.5753 c 0.327271,-0.6345 1.157481,-4.26836 1.844897,-8.07529 0.867055,-4.80184 2.327716,-9.15937 4.769253,-14.22793 3.025225,-6.28031 4.505312,-8.28221 10.540612,-14.25673 5.652066,-5.59511 8.295958,-7.57351 13.55836,-10.14552 9.548118,-4.66668 14.870866,-5.88522 25.764079,-5.89821 10.29647,-0.0131 15.9552,1.15719 23.86479,4.9321 2.64604,1.26282 5.34395,2.29604 5.99539,2.29604 1.63221,0 6.94426,-6.63837 6.41522,-8.01699 -0.548,-1.42807 -10.13691,-5.99845 -16.90587,-8.05788 -23.04653,-7.01179 -48.480437,-0.73603 -66.539684,16.41847 -11.614619,11.03273 -18.436746,23.8874 -20.916957,39.41292 -1.06448,6.66342 -0.52317,7.29208 6.024901,6.99728 3.484913,-0.15696 5.169424,-0.57259 5.585009,-1.37826 z m 104.449891,-64.67583 3.36624,-3.84951 -1.62562,-1.73037 c -2.57249,-2.73829 -12.89016,-7.87776 -21.80063,-10.85939 -8.52196,-2.85162 -22.74071,-5.42469 -25.77222,-4.66382 -1.61548,0.40545 -1.75592,0.86356 -1.75592,5.7273 0,6.14657 -0.24918,5.94287 8.63097,7.05633 8.90738,1.11689 18.59816,4.19321 26.36201,8.36856 3.80693,2.04735 7.44082,3.73997 8.07532,3.76143 0.63448,0.0218 2.66841,-1.6933 4.51985,-3.81053 z"
       id="path85"
       inkscape:connector-curvature="0" />
  </g>
</svg>
